<svg xmlns="http://www.w3.org/2000/svg" width="18" height="18" viewBox="0 0 18 18">
<path fill="#1E201D" d="M9,0c2.5,0,4.7,1,6.4,2.6C17,4.3,18,6.5,18,9s-1,4.7-2.6,6.4C13.7,17,11.5,18,9,18s-4.7-1-6.4-2.6
	C1,13.7,0,11.5,0,9c0-2.5,1-4.7,2.6-6.4C4.3,1,6.5,0,9,0L9,0z M13.6,8.5c0.3,0,0.5,0.2,0.5,0.5s-0.2,0.5-0.5,0.5H9h0
	c-0.2,0-0.3-0.1-0.4-0.2l0,0l0,0l0,0l0,0v0l0,0l0,0l0,0l0,0l0,0v0l0,0l0,0l0,0l0,0l0,0v0l0,0l0,0l0,0v0l0,0l0,0l0,0v0l0,0v0v0l0,0
	l0,0v0l0,0v0l0,0v0l0,0v0l0,0v0l0,0v0l0,0V3.1c0-0.3,0.2-0.5,0.5-0.5c0.3,0,0.5,0.2,0.5,0.5v5.4H13.6z M14.7,3.3
	C13.2,1.9,11.2,1,9,1S4.8,1.9,3.3,3.3C1.9,4.8,1,6.8,1,9s0.9,4.2,2.3,5.7C4.8,16.1,6.8,17,9,17s4.2-0.9,5.7-2.3S17,11.2,17,9
	C17,6.8,16.1,4.8,14.7,3.3L14.7,3.3z"/>
</svg>
