<svg xmlns="http://www.w3.org/2000/svg" width="48" height="48" viewBox="0 0 48 48">
    <g fill="none" fill-rule="evenodd" stroke="#C80400" stroke-width="1.5" transform="translate(1 1)">
        <circle cx="23" cy="23" r="23"/>
        <path d="M23.897 9.23c4.072.732 7.174 4.525 7.174 9.094.084 1.608.009 11.227.613 13.524.238.224.445.469.604.725l.436.7c.672 1.08.186 1.955-1.09 1.955H13.292c-1.274 0-1.674-.814-.889-1.822l.752-.966c.155-.2.345-.392.56-.572.4-.805.857-1.919.857-2.787 0-1.537-.717-9.99-.717-9.99h.03c-.02-.253-.03-.51-.03-.767 0-4.57 3.102-8.362 7.174-9.094v-.788a1.435 1.435 0 1 1 2.87 0v.788zM25.12 35.574h-5.196v.313a2.599 2.599 0 0 0 5.196 0v-.313z"/>
    </g>
</svg>
